<?xml version="1.0" encoding="UTF-8" standalone="no"?>
<svg xmlns="http://www.w3.org/2000/svg" xmlns:xlink="http://www.w3.org/1999/xlink" xmlns:serif="http://www.serif.com/" width="100%" height="100%" viewBox="0 0 2223 2209" version="1.1" xml:space="preserve" style="fill-rule:evenodd;clip-rule:evenodd;stroke-linejoin:round;stroke-miterlimit:2;">
  <path d="M2222.22,1111.11c0,-613.651 -497.461,-1111.11 -1111.11,-1111.11c-613.651,0 -1111.11,497.461 -1111.11,1111.11c0,554.587 406.317,1014.26 937.5,1097.61l0,-776.432l-282.117,0l-0,-321.18l282.117,-0l0,-244.792c0,-278.473 165.881,-432.292 419.683,-432.292c121.566,0 248.721,21.701 248.721,21.701l-0,273.438l-140.109,-0c-138.028,-0 -181.071,85.649 -181.071,173.519l-0,208.426l308.159,-0l-49.263,321.18l-258.898,0l-0,776.432c531.183,-83.354 937.5,-543.025 937.5,-1097.61" style="fill:#fff;fill-rule:nonzero;"></path>
</svg>
