<svg xmlns="http://www.w3.org/2000/svg" viewBox="0 0 1079.86 1079.86"><defs><style>.cls-1{fill:#fff;}</style></defs><g id="Warstwa_2" data-name="Warstwa 2"><g id="Warstwa_1-2" data-name="Warstwa 1"><path class="cls-1" d="M539.93,362a178,178,0,1,0,178,178A178,178,0,0,0,539.93,362Zm0,293.51A115.53,115.53,0,1,1,655.46,539.93,115.52,115.52,0,0,1,539.93,655.46Z"/><path class="cls-1" d="M539.93,0C241.74,0,0,241.74,0,539.93s241.74,539.93,539.93,539.93,539.93-241.73,539.93-539.93S838.13,0,539.93,0ZM884.44,682.83c-1.68,36.89-7.54,62.09-16.11,84.13A177.21,177.21,0,0,1,767,868.33c-22.05,8.57-47.25,14.43-84.14,16.11s-48.77,2.09-142.9,2.09S434,886.13,397,884.44s-62.09-7.54-84.13-16.11A177.26,177.26,0,0,1,211.53,767c-8.57-22-14.43-47.24-16.11-84.13s-2.08-48.77-2.08-142.9S193.73,434,195.42,397s7.54-62.09,16.11-84.13A177.26,177.26,0,0,1,312.9,211.53c22-8.57,47.24-14.43,84.13-16.11s48.77-2.09,142.9-2.09,105.93.4,142.9,2.09S744.92,203,767,211.53A177.21,177.21,0,0,1,868.33,312.9c8.57,22,14.43,47.24,16.11,84.13s2.09,48.77,2.09,142.9S886.13,645.86,884.44,682.83Z"/><circle class="cls-1" cx="724.95" cy="354.92" r="41.59" transform="translate(-54.04 143.5) rotate(-10.9)"/></g></g></svg>